<svg width="73" height="103" viewBox="0 0 73 103" fill="none" xmlns="http://www.w3.org/2000/svg">
<path d="M54.574 19.3034L58.5904 19.3651L56.5288 22.8125L54.574 19.3034Z" fill="#F7F2EC"/>
<path d="M37.7336 36.4862L27.2851 33.3783L21.7308 52.7075L22.0581 62.4147L41.0984 61.7726L34.2326 53.1694L37.7336 36.4862Z" fill="#F7F2EC" stroke="#F7F2EC" stroke-width="3"/>
<path d="M25.3733 24.9181L24.5074 24.9022L24.9267 25.66L32.4653 39.2874L32.8846 40.0452L33.3312 39.3032L41.3635 25.9609L41.8102 25.2189L40.9443 25.2031L25.3733 24.9181Z" fill="#F7F2EC" stroke="#161616"/>
<path d="M33.5146 60.8945L46.4374 69.4854L46.4374 83.9971L52.4128 89.9725" stroke="#F7F2EC"/>
<path d="M28.4308 60.9884L37.4874 74.6583L35.3725 93.9067L39.9069 100.375" stroke="#F7F2EC"/>
<path d="M37.4942 38.1637L48.6312 32.2745L56.0997 20.66" stroke="#F7F2EC"/>
<path d="M26.0434 37.216L14.341 28.8527L9.73145 10.7557" stroke="#F7F2EC"/>
<path d="M9.01905 8.89535L11.8074 11.7867L7.90922 12.7559L9.01905 8.89535Z" fill="#F7F2EC"/>
</svg>
