<svg width="30" height="31" viewBox="0 0 30 31" fill="none" xmlns="http://www.w3.org/2000/svg">
<path d="M23.039 11.941C22.8373 11.941 22.6401 12.0008 22.4723 12.1129C22.3046 12.225 22.1738 12.3843 22.0966 12.5707C22.0194 12.757 21.9992 12.9621 22.0386 13.16C22.078 13.3579 22.1751 13.5396 22.3178 13.6822C22.4604 13.8249 22.6421 13.922 22.84 13.9614C23.0379 14.0008 23.243 13.9806 23.4293 13.9034C23.6157 13.8262 23.775 13.6954 23.8871 13.5277C23.9992 13.3599 24.059 13.1627 24.059 12.961C24.059 12.6905 23.9515 12.431 23.7602 12.2398C23.569 12.0485 23.3095 11.941 23.039 11.941ZM26.949 13.998C26.9325 13.2928 26.8004 12.595 26.558 11.9325C26.3419 11.3657 26.0055 10.8524 25.572 10.428C25.1511 9.99231 24.6366 9.65805 24.0675 9.4505C23.4068 9.20074 22.7082 9.06563 22.002 9.051C21.101 9 20.812 9 18.5 9C16.188 9 15.899 9 14.998 9.051C14.2918 9.06563 13.5932 9.20074 12.9325 9.4505C12.3644 9.66015 11.8504 9.99413 11.428 10.428C10.9923 10.8489 10.6581 11.3634 10.4505 11.9325C10.2007 12.5932 10.0656 13.2918 10.051 13.998C10 14.899 10 15.188 10 17.5C10 19.812 10 20.101 10.051 21.002C10.0656 21.7082 10.2007 22.4068 10.4505 23.0675C10.6581 23.6366 10.9923 24.1511 11.428 24.572C11.8504 25.0059 12.3644 25.3398 12.9325 25.5495C13.5932 25.7993 14.2918 25.9344 14.998 25.949C15.899 26 16.188 26 18.5 26C20.812 26 21.101 26 22.002 25.949C22.7082 25.9344 23.4068 25.7993 24.0675 25.5495C24.6366 25.3419 25.1511 25.0077 25.572 24.572C26.0074 24.1492 26.3441 23.6355 26.558 23.0675C26.8004 22.405 26.9325 21.7072 26.949 21.002C26.949 20.101 27 19.812 27 17.5C27 15.188 27 14.899 26.949 13.998ZM25.419 20.9C25.4128 21.4396 25.3151 21.9741 25.13 22.481C24.9943 22.8509 24.7763 23.1852 24.4925 23.4585C24.2168 23.7394 23.8832 23.957 23.515 24.096C23.0081 24.2811 22.4736 24.3788 21.934 24.385C21.084 24.4275 20.7695 24.436 18.534 24.436C16.2985 24.436 15.984 24.436 15.134 24.385C14.5738 24.3955 14.0159 24.3092 13.485 24.13C13.1329 23.9839 12.8147 23.7669 12.55 23.4925C12.2679 23.2194 12.0526 22.8849 11.921 22.515C11.7135 22.0009 11.5984 21.4542 11.581 20.9C11.581 20.05 11.53 19.7355 11.53 17.5C11.53 15.2645 11.53 14.95 11.581 14.1C11.5848 13.5484 11.6855 13.0018 11.8785 12.485C12.0281 12.1262 12.2578 11.8064 12.55 11.55C12.8082 11.2577 13.1274 11.0256 13.485 10.87C14.0031 10.683 14.5492 10.5853 15.1 10.581C15.95 10.581 16.2645 10.53 18.5 10.53C20.7355 10.53 21.05 10.53 21.9 10.581C22.4396 10.5872 22.9741 10.6849 23.481 10.87C23.8673 11.0134 24.2139 11.2464 24.4925 11.55C24.771 11.8111 24.9887 12.1303 25.13 12.485C25.3189 13.0026 25.4167 13.549 25.419 14.1C25.4615 14.95 25.47 15.2645 25.47 17.5C25.47 19.7355 25.4615 20.05 25.419 20.9ZM18.5 13.1395C17.6379 13.1412 16.7957 13.3983 16.0798 13.8785C15.3638 14.3587 14.8062 15.0403 14.4775 15.8372C14.1488 16.6341 14.0636 17.5106 14.2328 18.3559C14.402 19.2012 14.818 19.9774 15.4282 20.5863C16.0383 21.1953 16.8153 21.6098 17.6609 21.7773C18.5066 21.9449 19.3829 21.858 20.1791 21.5278C20.9754 21.1975 21.6559 20.6386 22.1347 19.9217C22.6135 19.2048 22.869 18.3621 22.869 17.5C22.8701 16.9263 22.7578 16.3581 22.5386 15.828C22.3193 15.2979 21.9974 14.8164 21.5913 14.4111C21.1853 14.0059 20.7032 13.6849 20.1726 13.4667C19.6421 13.2485 19.0737 13.1373 18.5 13.1395ZM18.5 20.3305C17.9402 20.3305 17.3929 20.1645 16.9275 19.8535C16.462 19.5425 16.0992 19.1004 15.885 18.5832C15.6707 18.066 15.6147 17.4969 15.7239 16.9478C15.8331 16.3987 16.1027 15.8944 16.4985 15.4985C16.8944 15.1027 17.3987 14.8331 17.9478 14.7239C18.4969 14.6147 19.066 14.6707 19.5832 14.885C20.1004 15.0992 20.5425 15.462 20.8535 15.9275C21.1645 16.3929 21.3305 16.9402 21.3305 17.5C21.3305 17.8717 21.2573 18.2398 21.115 18.5832C20.9728 18.9266 20.7643 19.2386 20.5015 19.5015C20.2386 19.7643 19.9266 19.9728 19.5832 20.115C19.2398 20.2573 18.8717 20.3305 18.5 20.3305Z" fill="#F7F2EC"/>
</svg>
