<svg width="22" height="22" viewBox="0 0 22 22" fill="none" xmlns="http://www.w3.org/2000/svg">
<circle cx="11" cy="11" r="10.5" stroke="black"/>
<path d="M10.2486 19V7.32281H11.7401V19H10.2486ZM10.9944 4.96491C10.7232 4.96491 10.4896 4.87134 10.2938 4.68421C10.0979 4.48959 10 4.2538 10 3.97684C10 3.70737 10.0979 3.47906 10.2938 3.29193C10.4896 3.09731 10.7232 3 10.9944 3C11.2731 3 11.5104 3.09731 11.7062 3.29193C11.9021 3.47906 12 3.70737 12 3.97684C12 4.2538 11.9021 4.48959 11.7062 4.68421C11.5104 4.87134 11.2731 4.96491 10.9944 4.96491Z" fill="black"/>
</svg>
